<?xml version="1.0" encoding="UTF-8"?>
<svg version="1.1" viewBox="0 0 1603.7 1113.2" xml:space="preserve" xmlns="http://www.w3.org/2000/svg"><g transform="translate(859.18 233.11)"><path id="ID" d="m-43.837 742.25c12.652-16.058 24.009-33.358 39.165-47.078 7.5783-6.8598 16.1-12.779 25.539-16.702 9.4388-3.9238 19.832-5.7991 29.981-4.5794 9.6307 1.1574 18.762 5.0398 27.121 9.9611 8.3588 4.9213 16.045 10.886 23.873 16.615 7.8274 5.729 15.877 11.27 24.739 15.214 8.8619 3.9442 18.644 6.2433 28.289 5.2063 11.538-1.2406 22.191-7.1988 30.755-15.03 8.5638-7.8313 15.245-17.481 21.425-27.304s11.956-19.936 19.055-29.116c7.0993-9.1797 15.671-17.491 26.118-22.545 8.8397-4.2769 18.718-6.0708 28.53-6.4551s19.622 0.59387 29.389 1.6187c9.7664 1.0248 19.56 2.0991 29.378 1.9075 9.8182-0.19163 19.726-1.6895 28.727-5.616 14.337-6.2543 25.535-18.361 33.178-32.008s12.039-28.851 15.734-44.049 6.7702-30.599 12.037-45.327c5.2672-14.728 12.908-28.935 24.401-39.545 8.7593-8.0865 19.473-13.821 30.612-18.068 11.139-4.2469 22.759-7.0738 34.332-9.9346 11.573-2.8608 23.176-5.7796 34.248-10.199 11.072-4.4191 21.664-10.411 30.168-18.765 10.762-10.572 17.751-24.533 21.845-39.052 4.0935-14.52 5.4447-29.665 6.1763-44.733 0.73165-15.068 0.86465-30.186 2.6026-45.171 1.738-14.985 5.1438-29.955 12.052-43.366 12.803-24.856 36.255-42.128 58.464-59.114 11.104-8.4932 22.133-17.176 31.826-27.249 9.6932-10.074 18.064-21.635 23.066-34.69 8.0163-20.921 6.852-44.613-0.0747-65.92-6.9266-21.307-19.285-40.475-33.265-57.982-39.861-49.916-93.417-87.722-151.05-115.27s-119.46-45.292-181.67-59.795c-204.63-47.706-421.72-60.989-623.39-2.005-100.83 29.492-196.83 77.02-278.52 143.09-81.687 66.066-148.78 150.92-189.96 247.58s-55.849 205.12-37.268 308.53c18.581 103.4 71.052 201.15 150.04 270.43 78.984 69.275 184.46 108.8 289.41 104.02 104.95-4.7768 207.9-54.971 272.92-137.49z" fill="#a789a8E6" stroke-width="1.0276"/></g></svg>
